<mxfile host="65bd71144e">
    <diagram id="D4EEXawhI7u3pJOFg-3S" name="Page-1">
        <mxGraphModel dx="3520" dy="1013" grid="0" gridSize="10" guides="1" tooltips="1" connect="1" arrows="1" fold="1" page="0" pageScale="1" pageWidth="850" pageHeight="1100" math="0" shadow="0">
            <root>
                <mxCell id="0"/>
                <mxCell id="1" parent="0"/>
                <mxCell id="XpfoHp2MNAuwnhG5AkmA-44" value="&lt;font style=&quot;font-size: 26px;&quot;&gt;Git Intro&lt;/font&gt;" style="rounded=1;whiteSpace=wrap;html=1;" parent="1" vertex="1">
                    <mxGeometry x="199" y="86" width="453" height="60" as="geometry"/>
                </mxCell>
                <mxCell id="XpfoHp2MNAuwnhG5AkmA-45" value="" style="sketch=0;aspect=fixed;pointerEvents=1;shadow=0;dashed=0;html=1;strokeColor=none;labelPosition=center;verticalLabelPosition=bottom;verticalAlign=top;align=center;fillColor=#00188D;shape=mxgraph.azure.computer;fontSize=26;" parent="1" vertex="1">
                    <mxGeometry x="104" y="210" width="120" height="108" as="geometry"/>
                </mxCell>
                <mxCell id="XpfoHp2MNAuwnhG5AkmA-46" value="Local Machine" style="rounded=1;whiteSpace=wrap;html=1;fontSize=26;" parent="1" vertex="1">
                    <mxGeometry x="45" y="337" width="254" height="72" as="geometry"/>
                </mxCell>
                <mxCell id="XpfoHp2MNAuwnhG5AkmA-48" value="" style="shape=datastore;whiteSpace=wrap;html=1;fontSize=26;" parent="1" vertex="1">
                    <mxGeometry x="609" y="210" width="143" height="141" as="geometry"/>
                </mxCell>
                <mxCell id="XpfoHp2MNAuwnhG5AkmA-49" value="GitHub" style="rounded=1;whiteSpace=wrap;html=1;fontSize=26;" parent="1" vertex="1">
                    <mxGeometry x="581" y="368" width="191" height="60" as="geometry"/>
                </mxCell>
                <mxCell id="XpfoHp2MNAuwnhG5AkmA-50" value="" style="endArrow=classic;startArrow=classic;html=1;rounded=0;fontSize=26;" parent="1" edge="1">
                    <mxGeometry width="50" height="50" relative="1" as="geometry">
                        <mxPoint x="286" y="267" as="sourcePoint"/>
                        <mxPoint x="560" y="267" as="targetPoint"/>
                    </mxGeometry>
                </mxCell>
                <mxCell id="XpfoHp2MNAuwnhG5AkmA-51" value="Git" style="text;html=1;strokeColor=none;fillColor=none;align=center;verticalAlign=middle;whiteSpace=wrap;rounded=0;fontSize=26;" parent="1" vertex="1">
                    <mxGeometry x="395" y="204" width="60" height="30" as="geometry"/>
                </mxCell>
                <mxCell id="XpfoHp2MNAuwnhG5AkmA-52" value="git add: stages files that have changed in the latest version" style="rounded=1;whiteSpace=wrap;html=1;fontSize=26;" parent="1" vertex="1">
                    <mxGeometry x="4" y="1215" width="271" height="156" as="geometry"/>
                </mxCell>
                <mxCell id="XpfoHp2MNAuwnhG5AkmA-53" value="git status: checks the diff between the remote version(github) and the local version (your machine) of a file" style="rounded=1;whiteSpace=wrap;html=1;fontSize=26;" parent="1" vertex="1">
                    <mxGeometry x="277" y="502" width="321" height="194" as="geometry"/>
                </mxCell>
                <mxCell id="XpfoHp2MNAuwnhG5AkmA-54" value="git commit: attach message to list of files changed" style="rounded=1;whiteSpace=wrap;html=1;fontSize=26;" parent="1" vertex="1">
                    <mxGeometry x="446" y="1223" width="266" height="170" as="geometry"/>
                </mxCell>
                <mxCell id="XpfoHp2MNAuwnhG5AkmA-55" value="git push: sends the local changes to the remote branch" style="rounded=1;whiteSpace=wrap;html=1;fontSize=26;" parent="1" vertex="1">
                    <mxGeometry x="856" y="1223" width="282" height="180" as="geometry"/>
                </mxCell>
                <mxCell id="XpfoHp2MNAuwnhG5AkmA-56" value="git pull: brings remote changes from the repo to your local machine" style="rounded=1;whiteSpace=wrap;html=1;fontSize=26;" parent="1" vertex="1">
                    <mxGeometry x="720" y="784" width="282" height="180" as="geometry"/>
                </mxCell>
                <mxCell id="XpfoHp2MNAuwnhG5AkmA-58" value="Make changes to the code" style="rounded=1;whiteSpace=wrap;html=1;fontSize=26;" parent="1" vertex="1">
                    <mxGeometry x="338.5" y="958" width="174" height="129" as="geometry"/>
                </mxCell>
                <mxCell id="XpfoHp2MNAuwnhG5AkmA-59" value="" style="endArrow=classic;html=1;rounded=0;fontSize=26;" parent="1" edge="1">
                    <mxGeometry width="50" height="50" relative="1" as="geometry">
                        <mxPoint x="334" y="1277" as="sourcePoint"/>
                        <mxPoint x="421" y="1275" as="targetPoint"/>
                    </mxGeometry>
                </mxCell>
                <mxCell id="XpfoHp2MNAuwnhG5AkmA-60" value="" style="endArrow=classic;html=1;rounded=0;fontSize=26;" parent="1" edge="1">
                    <mxGeometry width="50" height="50" relative="1" as="geometry">
                        <mxPoint x="391" y="1123" as="sourcePoint"/>
                        <mxPoint x="298" y="1190" as="targetPoint"/>
                    </mxGeometry>
                </mxCell>
                <mxCell id="XpfoHp2MNAuwnhG5AkmA-61" value="" style="endArrow=classic;html=1;rounded=0;fontSize=26;" parent="1" edge="1">
                    <mxGeometry width="50" height="50" relative="1" as="geometry">
                        <mxPoint x="622" y="663" as="sourcePoint"/>
                        <mxPoint x="708" y="790" as="targetPoint"/>
                    </mxGeometry>
                </mxCell>
                <mxCell id="XpfoHp2MNAuwnhG5AkmA-62" value="" style="endArrow=classic;html=1;rounded=0;fontSize=26;" parent="1" edge="1">
                    <mxGeometry width="50" height="50" relative="1" as="geometry">
                        <mxPoint x="406" y="714" as="sourcePoint"/>
                        <mxPoint x="404" y="888" as="targetPoint"/>
                    </mxGeometry>
                </mxCell>
                <mxCell id="XpfoHp2MNAuwnhG5AkmA-64" value="If up to date with the latest" style="text;html=1;strokeColor=none;fillColor=none;align=center;verticalAlign=middle;whiteSpace=wrap;rounded=0;fontSize=26;" parent="1" vertex="1">
                    <mxGeometry x="277" y="804" width="60" height="30" as="geometry"/>
                </mxCell>
                <mxCell id="XpfoHp2MNAuwnhG5AkmA-68" value="Not up to date" style="text;html=1;strokeColor=none;fillColor=none;align=center;verticalAlign=middle;whiteSpace=wrap;rounded=0;fontSize=26;" parent="1" vertex="1">
                    <mxGeometry x="692" y="669" width="60" height="30" as="geometry"/>
                </mxCell>
                <mxCell id="XpfoHp2MNAuwnhG5AkmA-69" value="" style="endArrow=classic;html=1;rounded=0;fontSize=26;" parent="1" edge="1">
                    <mxGeometry width="50" height="50" relative="1" as="geometry">
                        <mxPoint x="686" y="914" as="sourcePoint"/>
                        <mxPoint x="562" y="1001" as="targetPoint"/>
                    </mxGeometry>
                </mxCell>
                <mxCell id="XpfoHp2MNAuwnhG5AkmA-70" value="" style="endArrow=classic;html=1;rounded=0;fontSize=26;" parent="1" edge="1">
                    <mxGeometry width="50" height="50" relative="1" as="geometry">
                        <mxPoint x="746" y="1307" as="sourcePoint"/>
                        <mxPoint x="829" y="1310" as="targetPoint"/>
                    </mxGeometry>
                </mxCell>
                <mxCell id="XpfoHp2MNAuwnhG5AkmA-71" value="main" style="ellipse;whiteSpace=wrap;html=1;fontSize=26;" parent="1" vertex="1">
                    <mxGeometry x="128" y="1802" width="176" height="127" as="geometry"/>
                </mxCell>
                <mxCell id="XpfoHp2MNAuwnhG5AkmA-72" value="" style="endArrow=none;html=1;rounded=0;fontSize=26;" parent="1" edge="1">
                    <mxGeometry width="50" height="50" relative="1" as="geometry">
                        <mxPoint x="-470" y="1503" as="sourcePoint"/>
                        <mxPoint x="2244" y="1494" as="targetPoint"/>
                    </mxGeometry>
                </mxCell>
                <mxCell id="XpfoHp2MNAuwnhG5AkmA-73" value="Branches" style="rounded=1;whiteSpace=wrap;html=1;fontSize=26;" parent="1" vertex="1">
                    <mxGeometry x="536" y="1555" width="536" height="97" as="geometry"/>
                </mxCell>
                <mxCell id="XpfoHp2MNAuwnhG5AkmA-74" value="" style="endArrow=classic;html=1;rounded=0;fontSize=26;" parent="1" edge="1">
                    <mxGeometry width="50" height="50" relative="1" as="geometry">
                        <mxPoint x="226" y="1971" as="sourcePoint"/>
                        <mxPoint x="224" y="2081" as="targetPoint"/>
                    </mxGeometry>
                </mxCell>
                <mxCell id="XpfoHp2MNAuwnhG5AkmA-76" value="dezbryan/updatefont" style="ellipse;whiteSpace=wrap;html=1;fontSize=26;" parent="1" vertex="1">
                    <mxGeometry x="82" y="2119" width="259" height="118" as="geometry"/>
                </mxCell>
                <mxCell id="XpfoHp2MNAuwnhG5AkmA-77" value="update font arial" style="ellipse;whiteSpace=wrap;html=1;fontSize=26;" parent="1" vertex="1">
                    <mxGeometry x="489" y="2234" width="168" height="107" as="geometry"/>
                </mxCell>
                <mxCell id="XpfoHp2MNAuwnhG5AkmA-78" value="update font to 18 pt" style="ellipse;whiteSpace=wrap;html=1;fontSize=26;" parent="1" vertex="1">
                    <mxGeometry x="777" y="2230" width="176" height="100" as="geometry"/>
                </mxCell>
                <mxCell id="XpfoHp2MNAuwnhG5AkmA-79" value="main v3" style="ellipse;whiteSpace=wrap;html=1;fontSize=26;" parent="1" vertex="1">
                    <mxGeometry x="830" y="1821" width="120" height="80" as="geometry"/>
                </mxCell>
                <mxCell id="XpfoHp2MNAuwnhG5AkmA-80" value="main v2" style="ellipse;whiteSpace=wrap;html=1;fontSize=26;" parent="1" vertex="1">
                    <mxGeometry x="493" y="1821" width="120" height="80" as="geometry"/>
                </mxCell>
                <mxCell id="XpfoHp2MNAuwnhG5AkmA-81" value="" style="endArrow=classic;html=1;rounded=0;fontSize=26;" parent="1" edge="1">
                    <mxGeometry width="50" height="50" relative="1" as="geometry">
                        <mxPoint x="330" y="1847" as="sourcePoint"/>
                        <mxPoint x="459" y="1844" as="targetPoint"/>
                    </mxGeometry>
                </mxCell>
                <mxCell id="XpfoHp2MNAuwnhG5AkmA-82" value="" style="endArrow=classic;html=1;rounded=0;fontSize=26;" parent="1" edge="1">
                    <mxGeometry width="50" height="50" relative="1" as="geometry">
                        <mxPoint x="654" y="1862.5" as="sourcePoint"/>
                        <mxPoint x="782.9999999999995" y="1859.5" as="targetPoint"/>
                    </mxGeometry>
                </mxCell>
                <mxCell id="XpfoHp2MNAuwnhG5AkmA-83" value="" style="endArrow=classic;html=1;rounded=0;fontSize=26;" parent="1" edge="1">
                    <mxGeometry width="50" height="50" relative="1" as="geometry">
                        <mxPoint x="662" y="2290" as="sourcePoint"/>
                        <mxPoint x="743" y="2288" as="targetPoint"/>
                    </mxGeometry>
                </mxCell>
                <mxCell id="XpfoHp2MNAuwnhG5AkmA-84" value="" style="endArrow=classic;html=1;rounded=0;fontSize=26;" parent="1" edge="1">
                    <mxGeometry width="50" height="50" relative="1" as="geometry">
                        <mxPoint x="397" y="2221" as="sourcePoint"/>
                        <mxPoint x="473.99999999999955" y="2252" as="targetPoint"/>
                    </mxGeometry>
                </mxCell>
                <mxCell id="XpfoHp2MNAuwnhG5AkmA-86" value="main v4" style="ellipse;whiteSpace=wrap;html=1;fontSize=26;" parent="1" vertex="1">
                    <mxGeometry x="1080" y="1812" width="120" height="80" as="geometry"/>
                </mxCell>
                <mxCell id="XpfoHp2MNAuwnhG5AkmA-87" value="" style="endArrow=classic;html=1;rounded=0;fontSize=26;" parent="1" edge="1">
                    <mxGeometry width="50" height="50" relative="1" as="geometry">
                        <mxPoint x="968" y="1865" as="sourcePoint"/>
                        <mxPoint x="1056" y="1867" as="targetPoint"/>
                    </mxGeometry>
                </mxCell>
                <mxCell id="XpfoHp2MNAuwnhG5AkmA-88" value="" style="endArrow=classic;html=1;rounded=0;fontSize=26;" parent="1" edge="1">
                    <mxGeometry width="50" height="50" relative="1" as="geometry">
                        <mxPoint x="987" y="2206" as="sourcePoint"/>
                        <mxPoint x="1121" y="1954" as="targetPoint"/>
                    </mxGeometry>
                </mxCell>
                <mxCell id="XpfoHp2MNAuwnhG5AkmA-89" value="Pull Requests: review process for adding code to a repo&amp;nbsp;" style="text;html=1;strokeColor=none;fillColor=none;align=center;verticalAlign=middle;whiteSpace=wrap;rounded=0;fontSize=26;" parent="1" vertex="1">
                    <mxGeometry x="1097" y="2050" width="400" height="190" as="geometry"/>
                </mxCell>
                <mxCell id="XpfoHp2MNAuwnhG5AkmA-91" value="" style="verticalLabelPosition=bottom;verticalAlign=top;html=1;shape=mxgraph.basic.8_point_star;fontSize=26;" parent="1" vertex="1">
                    <mxGeometry x="1283" y="1526" width="512" height="430" as="geometry"/>
                </mxCell>
                <mxCell id="XpfoHp2MNAuwnhG5AkmA-92" value="merge conflict" style="text;html=1;strokeColor=none;fillColor=none;align=center;verticalAlign=middle;whiteSpace=wrap;rounded=0;fontSize=26;" parent="1" vertex="1">
                    <mxGeometry x="1445" y="1672" width="151" height="122" as="geometry"/>
                </mxCell>
            </root>
        </mxGraphModel>
    </diagram>
</mxfile>